<svg xmlns="http://www.w3.org/2000/svg" width="46.091" height="46.103"><defs><linearGradient id="a" x1=".5" x2=".5" y2="1" gradientUnits="objectBoundingBox"><stop offset="0" stop-color="#615cfd"/><stop offset="1" stop-color="#d465ef"/></linearGradient></defs><path data-name="Path 269" d="M34.651 31.587l-3.071 3.071-3.167-3.167 3.071-3.071z" fill="#334a5e"/><path data-name="Path 270" d="M44.724 44.736a4.692 4.692 0 01-6.622 0l-9.021-9.021 6.622-6.622 9.021 9.021a4.692 4.692 0 010 6.622z" fill="#ffd15c"/><path data-name="Path 271" d="M31.063 5.291a18.16 18.16 0 00-25.625 0 17.958 17.958 0 00-.1 25.529A18.12 18.12 0 0031.063 5.291z" transform="translate(-.064)" fill="url(#a)"/><path data-name="Path 272" d="M28.121 28.132a14.221 14.221 0 01-20.058-.1 14.019 14.019 0 01.1-19.962 14.15 14.15 0 1119.958 20.062z" fill="#f2f2f2"/><path data-name="Path 273" d="M25.342 25.348a10.247 10.247 0 110-14.492 10.2 10.2 0 010 14.492z" fill="#84dbff"/><path data-name="Path 274" d="M23.13 23.141a7.126 7.126 0 110-10.077 7.125 7.125 0 010 10.077z" fill="#54c0eb"/><g data-name="Group 77" transform="translate(10.871 13.15)" fill="#fff"><circle data-name="Ellipse 18" cx="1.536" cy="1.536" r="1.536"/><circle data-name="Ellipse 19" cx=".768" cy=".768" transform="translate(3.051 2.244)" r=".768"/></g><path data-name="Path 275" d="M35.702 29.092l-6.718 6.526 2.783 2.783 6.622-6.622z" fill="#f8b64c"/></svg>