<svg xmlns="http://www.w3.org/2000/svg" width="46.055" height="46.103"><defs><linearGradient id="a" x1=".5" x2=".5" y2="1" gradientUnits="objectBoundingBox"><stop offset="0" stop-color="#615cfd"/><stop offset="1" stop-color="#d465ef"/></linearGradient></defs><path data-name="Path 255" d="M46.055 44.184a1.953 1.953 0 01-.576 1.439 2.08 2.08 0 01-1.343.48H1.919a2.293 2.293 0 01-1.343-.48A1.953 1.953 0 010 44.184V16.071h46.055v28.113z" fill="#ffd15c"/><path data-name="Path 256" d="M45.48 45.624a2.08 2.08 0 01-1.343.48H1.919a2.293 2.293 0 01-1.343-.48l22.452-19.286z" fill="#f8b64c"/><path data-name="Path 257" d="M46.316 16.072l-6.524 4.7-15.256 10.939a2.159 2.159 0 01-2.591 0L6.785 20.773l-6.524-4.7 6.524-4.7L20.986 1.2l1.055-.768a2.159 2.159 0 012.591 0l1.055.768L32.5 6.093l3.358 2.4 3.934 2.878z" transform="translate(-.261)" fill="url(#a)"/><path data-name="Path 258" d="M39.53 7.148v13.624L24.274 31.711a2.159 2.159 0 01-2.591 0L6.524 20.772V3.118a1.925 1.925 0 011.919-1.919h25.042z" fill="#f2f2f2"/><path data-name="Path 259" d="M33.582 5.613a1.515 1.515 0 001.535 1.535h4.414l-5.949-5.949v4.414z" fill="#cdd6e0"/><path data-name="Path 260" d="M28.688 20.485h1.535a5.069 5.069 0 01-2.3 2.4 8.461 8.461 0 01-4.318.959 9.466 9.466 0 01-4.222-.864 5.659 5.659 0 01-2.687-2.495 7.471 7.471 0 01-.864-3.55 7.962 7.962 0 01.959-3.934 6.058 6.058 0 012.687-2.687 8.775 8.775 0 013.934-.864 7.527 7.527 0 013.358.768 4.71 4.71 0 012.207 2.111 6.233 6.233 0 01.768 2.974 5.749 5.749 0 01-1.151 3.454 4.315 4.315 0 01-3.742 1.919 2.407 2.407 0 01-.959-.192.971.971 0 01-.384-.672 2.762 2.762 0 01-2.015.864 2.478 2.478 0 01-2.015-.864 3.112 3.112 0 01-.864-2.3 5.864 5.864 0 01.959-3.262 3.569 3.569 0 013.07-1.727 2.376 2.376 0 012.015 1.055l.192-.864h2.011l-1.151 5.373a2.531 2.531 0 00-.1.672.353.353 0 00.1.288c.1.1.1.1.192.1a2.172 2.172 0 00.959-.48 4 4 0 001.247-1.535 5.156 5.156 0 00.48-2.015 3.99 3.99 0 00-1.343-3.07 5.049 5.049 0 00-3.742-1.247 6.592 6.592 0 00-3.454.864 5.421 5.421 0 00-2.111 2.3 6.951 6.951 0 00-.672 3.166 5.862 5.862 0 00.768 2.878 4.759 4.759 0 002.207 1.919 8.606 8.606 0 003.262.576 9.821 9.821 0 003.07-.48 5.723 5.723 0 002.114-1.538zm-8.156-3.07a2.144 2.144 0 00.384 1.439 1.332 1.332 0 00.959.48 1.807 1.807 0 00.768-.192 2.544 2.544 0 00.576-.48 3.5 3.5 0 00.672-1.343 5.322 5.322 0 00.288-1.631 2.03 2.03 0 00-.384-1.343 1.332 1.332 0 00-.959-.48 1.771 1.771 0 00-1.151.48 2.636 2.636 0 00-.864 1.439 5.326 5.326 0 00-.289 1.631z" fill="#ff7058"/></svg>