<svg xmlns="http://www.w3.org/2000/svg" width="46.007" height="46.103"><defs><linearGradient id="a" x1=".5" x2=".5" y2="1" gradientUnits="objectBoundingBox"><stop offset="0" stop-color="#615cfd"/><stop offset="1" stop-color="#d465ef"/></linearGradient></defs><path data-name="Path 250" d="M46.007 1.534A1.514 1.514 0 0044.478 0H1.917A1.923 1.923 0 000 1.917v29.521h46.007z" fill="#40596b"/><path data-name="Path 251" d="M0 31.438v3.642a1.923 1.923 0 001.917 1.917H44.09a1.923 1.923 0 001.917-1.917v-3.642z" fill="#cdd6e0"/><g data-name="Group 74" transform="translate(36.614 33.164)" fill="#f2f2f2"><circle data-name="Ellipse 15" cx="1.054" cy="1.054" transform="translate(4.217)" r="1.054"/><circle data-name="Ellipse 16" cx="1.054" cy="1.054" r="1.054"/></g><path data-name="Path 252" d="M32.589 42.652h-19.17l2.109-4.217.575-1.438h13.8l.575 1.438z" fill="#acb3ba"/><path data-name="Path 253" d="M34.218 42.652H11.789a1.726 1.726 0 100 3.451h22.428a1.726 1.726 0 100-3.451z" fill="#cdd6e0"/><path data-name="Path 254" d="M30.479 38.435H15.531l.575-1.438h13.8z" fill="#9eacb7"/><path data-name="Rectangle 24" fill="#fff" d="M3.067 2.78H42.94v25.783H3.067z"/><g data-name="Group 75" fill="#cdd6e0"><path data-name="Rectangle 25" d="M23.195 6.614h14.761V9.01H23.195z"/><path data-name="Rectangle 26" d="M23.195 10.64h14.761v2.396H23.195z"/><path data-name="Rectangle 27" d="M8.147 18.499h14.761v2.396H8.147z"/><path data-name="Rectangle 28" d="M8.147 22.429h14.761v2.396H8.147z"/></g><path data-name="Rectangle 29" transform="translate(7.955 5.655)" fill="url(#a)" d="M0 0h13.131v8.339H0z"/><path data-name="Rectangle 30" fill="#00d363" d="M24.921 17.54h13.131v8.339H24.921z"/></svg>