<svg xmlns="http://www.w3.org/2000/svg" width="45.912" height="46.007"><defs><linearGradient id="a" x1=".5" x2=".5" y2="1" gradientUnits="objectBoundingBox"><stop offset="0" stop-color="#615cfd"/><stop offset="1" stop-color="#d465ef"/></linearGradient></defs><path data-name="Path 281" d="M46.433 23v1.25a23.88 23.88 0 01-2.2 8.722 23.12 23.12 0 112.2-9.972z" transform="translate(-.522)" fill="url(#a)"/><circle data-name="Ellipse 20" cx="18.211" cy="18.211" transform="translate(4.697 4.792)" fill="#fff" r="18.211"/><circle data-name="Ellipse 21" cx="13.515" cy="13.515" r="13.515" transform="translate(9.393 9.489)" fill="#ff7058"/><circle data-name="Ellipse 22" cx="8.722" cy="8.722" transform="translate(14.186 14.281)" fill="#fff" r="8.722"/><circle data-name="Ellipse 23" cx="3.93" cy="3.93" transform="translate(18.978 19.074)" fill="#ff7058" r="3.93"/><path data-name="Path 282" d="M45.912 24.25a23.881 23.881 0 01-2.2 8.722l-3.355-.863-.958-3.259-16.773-4.5a1.547 1.547 0 11.863-2.971l16.678 4.5 2.492-2.4z" fill="#334a5e" opacity=".2"/><path data-name="Path 283" d="M36.71 9.106a1.624 1.624 0 00-2.2 0L21.954 21.662a1.624 1.624 0 000 2.2 1.624 1.624 0 002.2 0L36.71 11.311a1.624 1.624 0 000-2.205z" fill="#40596b"/><path data-name="Path 284" d="M40.256 5.559l-5.655 5.559-1.246-5.08L39.008.383z" fill="#84dbff"/><path data-name="Path 285" d="M39.777 12.364l5.559-5.559-5.08-1.246-5.655 5.559z" fill="#54c0eb"/></svg>