<svg xmlns="http://www.w3.org/2000/svg" width="46.007" height="46.103"><defs><linearGradient id="a" x1=".5" x2=".5" y2="1" gradientUnits="objectBoundingBox"><stop offset="0" stop-color="#615cfd"/><stop offset="1" stop-color="#d465ef"/></linearGradient></defs><path data-name="Path 276" d="M31.385 12.939a14.435 14.435 0 00-1.342-3.355l1.15-2.684-4.026-3.93-2.684 1.15a12.931 12.931 0 00-3.354-1.34L20.171 0h-5.655l-1.054 2.78a14.435 14.435 0 00-3.355 1.342L7.423 2.971 3.493 6.9l1.15 2.684A12.931 12.931 0 003.3 12.939L.522 13.994v5.655L3.3 20.7a14.435 14.435 0 001.342 3.355l-1.15 2.684 4.026 3.93 2.684-1.15a12.931 12.931 0 003.355 1.342l1.054 2.78h5.559l1.054-2.78a14.435 14.435 0 003.355-1.342l2.684 1.15 4.026-3.93-1.15-2.684a12.931 12.931 0 001.342-3.355l2.78-1.054v-5.652zM17.3 23.675a6.9 6.9 0 116.9-6.9 6.872 6.872 0 01-6.9 6.9z" transform="translate(-.522)" fill="url(#a)"/><g data-name="Group 78" fill="#54c0eb"><path data-name="Path 277" d="M21.662 21.662a6.826 6.826 0 01-9.681 0l-2.492 2.492A10.37 10.37 0 1024.154 9.489l-2.492 2.492a6.826 6.826 0 010 9.681z"/><path data-name="Path 278" d="M9.489 9.489a10.413 10.413 0 000 14.665l2.492-2.492a6.846 6.846 0 119.681-9.681l2.492-2.492a10.413 10.413 0 00-14.665 0z"/></g><path data-name="Path 279" d="M32.492 39.298a4.653 4.653 0 000-1.629l.958-.958-.958-2.4H31.15a13.01 13.01 0 00-1.15-1.15v-1.342l-2.4-.958-.958.958a4.651 4.651 0 00-1.629 0l-.958-.958-2.4.958v1.342a13 13 0 00-1.15 1.15h-1.342l-.958 2.4.958.958a4.651 4.651 0 000 1.629l-.958.958.958 2.4h1.342a13.012 13.012 0 001.15 1.15v1.342l2.4.958.958-.958a4.651 4.651 0 001.629 0l.958.958 2.4-.958v-1.342a13.014 13.014 0 001.15-1.15h1.342l.958-2.4zm-7.668 2.013a3.1 3.1 0 114.026-1.725 3.065 3.065 0 01-4.025 1.72z" fill="#4cdbc4"/><path data-name="Path 280" d="M45.048 26.742a4.651 4.651 0 000-1.629l.958-.958-.958-2.4h-1.342a13.012 13.012 0 00-1.15-1.15v-1.342l-2.4-.958-.958.958a4.652 4.652 0 00-1.629 0l-.958-.958-2.4.958v1.342a13.011 13.011 0 00-1.15 1.15h-1.342l-.958 2.4.958.958a4.654 4.654 0 000 1.629l-.958.958.958 2.4h1.342a13.011 13.011 0 001.15 1.15v1.342l2.4.958.958-.958a4.653 4.653 0 001.629 0l.958.958 2.4-.958V31.25a13.018 13.018 0 001.15-1.15h1.342l.958-2.4zm-7.764 2.109a3.1 3.1 0 114.026-1.725 3 3 0 01-4.025 1.724z" fill="#ff7058"/></svg>