<svg data-name="https://www.flaticon.com/free-icon/promotion_1077221" xmlns="http://www.w3.org/2000/svg" width="44.383" height="41.999"><path data-name="Path 218" d="M11.873 26.72a.867.867 0 10-1.184-.317.867.867 0 001.184.317zm0 0" fill="#ff008c"/><path data-name="Path 219" d="M8.321 32.703l4.366 7.562a3.467 3.467 0 106.006-3.467l-2.6-4.505 2.252-1.3a.867.867 0 00.317-1.184l-1.127-1.952 16.6-3.257a2.6 2.6 0 002.108-3.9l-2.881-4.99 1.841-2.789a.867.867 0 00.027-.911l-1.734-3a.869.869 0 00-.796-.428l-3.335.2-3.2-5.54a2.578 2.578 0 00-2.22-1.3h-.035a2.578 2.578 0 00-2.19 1.2L10.4 17.562l-7.362 4.25a6.068 6.068 0 005.286 10.89zm8.87 4.962a1.734 1.734 0 01-3 1.733L9.853 31.89l3-1.734zm-1.966-6.874l-.867-1.5 1.5-.867.867 1.5zm17.041-20.45l1.2 2.075-1.066 1.617-2.07-3.577zm-9.1-6.253a.867.867 0 011.491.017l10.087 17.464a.867.867 0 01-.729 1.3 3.182 3.182 0 00-.475.081L22.874 4.475c.226-.287.252-.315.297-.388zM21.72 5.945l10.021 17.357-15.124 2.966-4.6-7.965zM2.315 29.235A4.331 4.331 0 013.9 23.314l6.757-3.9 4.334 7.507-6.757 3.9a4.34 4.34 0 01-5.919-1.586zm0 0" fill="#ff008c"/><path data-name="Path 220" d="M9.188 27.269a.867.867 0 00-1.184-.317l-1.5.867a.868.868 0 01-1.184-.317.867.867 0 10-1.5.867 2.6 2.6 0 003.552.952l1.5-.867a.867.867 0 00.316-1.185zm0 0" fill="#ff008c"/><path data-name="Path 221" d="M43.096 3.793l-4.83 2.688a.867.867 0 10.843 1.515l4.83-2.688a.867.867 0 00-.843-1.515zm0 0" fill="#ff008c"/><path data-name="Path 222" d="M42.585 12.771l-3.349-.9a.867.867 0 10-.449 1.674l3.35.9a.867.867 0 10.448-1.674zm0 0" fill="#ff008c"/><path data-name="Path 223" d="M34.172.643l-.9 3.35a.867.867 0 001.675.449l.9-3.35a.867.867 0 10-1.674-.449zm0 0" fill="#ff008c"/></svg>