<svg data-name="https://www.flaticon.com/free-icon/share_126495" xmlns="http://www.w3.org/2000/svg" width="39.592" height="41.999"><path data-name="Path 224" d="M32.075 26.982a7.516 7.516 0 00-5.948 2.93L14.59 23.467a7.533 7.533 0 00.419-2.477 7.369 7.369 0 00-.427-2.485l11.528-6.436a7.5 7.5 0 10-1.552-4.561 7.331 7.331 0 00.427 2.485l-11.52 6.437a7.5 7.5 0 10.017 9.113l11.529 6.445a7.5 7.5 0 107.064-5.006zm0-24.619a5.154 5.154 0 11-5.154 5.154 5.158 5.158 0 015.154-5.154zM7.517 26.145a5.154 5.154 0 115.154-5.154 5.158 5.158 0 01-5.154 5.154zm24.558 13.491a5.154 5.154 0 115.154-5.154 5.158 5.158 0 01-5.154 5.154z" fill="#00d363"/></svg>