<svg data-name="https://www.flaticon.com/free-icon/graph_775480" xmlns="http://www.w3.org/2000/svg" width="42.065" height="42.065"><g data-name="Group 73"><g data-name="Group 72" fill="#615cfd"><path data-name="Path 212" d="M11.076 3.863a13.309 13.309 0 11-7.969 14.885 13.309 13.309 0 017.969-14.885zM5.092 20.711a11.942 11.942 0 1019.49-13 11.942 11.942 0 00-19.49 13z"/><path data-name="Path 213" d="M4.726 4.726a16.136 16.136 0 0124.211 21.235l1.239 1.238a1.4 1.4 0 011.35.357l8.931 8.931a1.4 1.4 0 01.357 1.35l.635.635a2.1 2.1 0 010 2.974l-.5-.5.494.5a2.1 2.1 0 01-2.974 0l-.635-.635a1.363 1.363 0 01-1.35-.358l-8.931-8.931a1.4 1.4 0 01-.357-1.35l-1.239-1.239A16.136 16.136 0 014.726 4.726zm34.739 35.731a.717.717 0 00.991 0 .7.7 0 000-.991l-.5-.5-.993.993zm-1.985-.993l.993-.993.992-.992-6.947-6.947-1.986 1.985zm-7.938-7.938l1.986-1.985-.993-.993-.992.992-.993.993zm-1.488-2.481l.5-.5.5-.5-1.018-1.018c-.159.173-.3.354-.472.522s-.349.313-.522.471zm-17.545.713a14.734 14.734 0 10-9.1-13.613 14.734 14.734 0 009.1 13.615z"/><path data-name="Path 214" d="M10.524 14.029a1.4 1.4 0 011.4 1.4v3.5h1.4v-6.308a1.4 1.4 0 011.4-1.4h2.1a1.4 1.4 0 011.4 1.4v6.308h1.4V9.817a1.4 1.4 0 011.4-1.4h2.1a1.4 1.4 0 011.4 1.4v9.812a.7.7 0 01-.7.7H7.721a.7.7 0 01-.7-.7v-4.205a1.4 1.4 0 011.4-1.4zm10.513 4.906h2.1V9.824h-2.1zm-6.308 0h2.1v-6.308h-2.1zm-6.308 0h2.1v-3.5h-2.1z"/><path data-name="Path 215" d="M9.123 21.739h.7a.7.7 0 010 1.4h-.7a.7.7 0 010-1.4z"/><path data-name="Path 216" d="M15.431 21.739h.7a.7.7 0 010 1.4h-.7a.7.7 0 010-1.4z"/><path data-name="Path 217" d="M21.739 21.739h.7a.7.7 0 010 1.4h-.7a.7.7 0 110-1.4z"/></g></g></svg>